<svg width="20" height="20" viewBox="0 0 20 20" fill="none" xmlns="http://www.w3.org/2000/svg">
<path d="M7 14V3.71429L17 2V12.2857M7 13.6667H3.66667C3.22464 13.6667 2.80072 13.8423 2.48816 14.1548C2.17559 14.4674 2 14.8913 2 15.3333C2 15.7754 2.17559 16.1993 2.48816 16.5118C2.80072 16.8244 3.22464 17 3.66667 17H5.33333C5.77536 17 6.19928 16.8244 6.51184 16.5118C6.82441 16.1993 7 15.7754 7 15.3333V13.6667ZM17 12H13.6667C13.2246 12 12.8007 12.1756 12.4882 12.4882C12.1756 12.8007 12 13.2246 12 13.6667C12 14.1087 12.1756 14.5326 12.4882 14.8452C12.8007 15.1577 13.2246 15.3333 13.6667 15.3333H15.3333C15.7754 15.3333 16.1993 15.1577 16.5118 14.8452C16.8244 14.5326 17 14.1087 17 13.6667V12Z" stroke="url(#paint0_linear_101_2)" stroke-width="2" stroke-linecap="round" stroke-linejoin="round"/>
<defs>
<linearGradient id="paint0_linear_101_2" x1="7" y1="-1" x2="10.5" y2="18.5" gradientUnits="userSpaceOnUse">
<stop offset="0.2263" stop-color="#CE4ACC"/>
<stop offset="1" stop-color="#7138BB"/>
</linearGradient>
</defs>
</svg>
