<svg width="20" height="20" viewBox="0 0 20 20" fill="none" xmlns="http://www.w3.org/2000/svg">
<rect width="20" height="20" rx="3" fill="url(#paint0_linear_101_15)"/>
<path d="M8 13.6V5.37143L16 4V12.2286M8 13.3333H5.33333C4.97971 13.3333 4.64057 13.4738 4.39052 13.7239C4.14048 13.9739 4 14.313 4 14.6667C4 15.0203 4.14048 15.3594 4.39052 15.6095C4.64057 15.8595 4.97971 16 5.33333 16H6.66667C7.02029 16 7.35943 15.8595 7.60948 15.6095C7.85952 15.3594 8 15.0203 8 14.6667V13.3333ZM16 12H13.3333C12.9797 12 12.6406 12.1405 12.3905 12.3905C12.1405 12.6406 12 12.9797 12 13.3333C12 13.687 12.1405 14.0261 12.3905 14.2761C12.6406 14.5262 12.9797 14.6667 13.3333 14.6667H14.6667C15.0203 14.6667 15.3594 14.5262 15.6095 14.2761C15.8595 14.0261 16 13.687 16 13.3333V12Z" stroke="white" stroke-width="2" stroke-linecap="round" stroke-linejoin="round"/>
<defs>
<linearGradient id="paint0_linear_101_15" x1="6.66667" y1="-4" x2="11.3333" y2="22" gradientUnits="userSpaceOnUse">
<stop offset="0.2263" stop-color="#CE4ACC"/>
<stop offset="1" stop-color="#7138BB"/>
</linearGradient>
</defs>
</svg>
